<svg xmlns="http://www.w3.org/2000/svg" viewBox="0 0 98.35 62.05"><title>Asset 1</title><g id="Layer_2" data-name="Layer 2"><g id="Artwork_01"><path d="M79.81,25a18.47,18.47,0,0,0-5.42.81l-1.86-4.62h11.6a1.09,1.09,0,0,0,1.06-.81l2.7-10a.54.54,0,0,0-.41-.67L66.09,5.25c-.49-1.19-.83-2-1-2.31A4.88,4.88,0,0,0,62.29.36c-3.22-1.15-7.41.77-7.87,1a1.56,1.56,0,1,0,1.35,2.82c.88-.42,3.77-1.48,5.48-.87a1.75,1.75,0,0,1,1.05,1c.38.82,2.36,5.67,4.91,12q-1.95,1.94-4.14,4.46a105,105,0,0,0-8.12,10.64c-2.89,4.23-3.86,5.49-6.77,6.28a20.93,20.93,0,0,1-4.42.44L35.87,18.73c3.41-.88,6.91-2,7-2.78s-2.27-2.23-7.16-1.37c-2.07.36-5.51-.11-8,0-1.15,0-2.7.74-2.7,2.1a4.1,4.1,0,0,0,5.28,3.43l2.54-.6L36.61,29a11.33,11.33,0,0,1-6.75-3.18c-3.71-3.71-1.44-5.13-11.94-5.15-8.21,0-7.86.8-8.24,3.09-.3,1.82-1.44,1.85-2.88,2.88s-5.56,4.12-6.8,7l2.53,1.66a18.54,18.54,0,1,0,35.14,9.12c1.64.06,3.06.08,4.29.08,5.41,0,7.14-.47,7.9-.68,5.33-1.45,7.46-4.57,10.4-8.87a98,98,0,0,1,7.65-10c.68-.78,1.32-1.49,1.92-2.14L71.5,27a18.53,18.53,0,1,0,8.31-2ZM19.15,57.74a14.22,14.22,0,0,1-13-20L12.58,42a4.19,4.19,0,0,0,1.85.67c2.25.25,8,.85,14.18,1.32,1.72.13,3.3.23,4.75.31A14.25,14.25,0,0,1,19.15,57.74Zm60.66,0A14.23,14.23,0,0,1,73.11,31l5.25,13.13a1.56,1.56,0,0,0,2.9-1.16C81,42.35,78.77,36.69,76,29.8a14.23,14.23,0,1,1,3.81,27.94Z"/></g></g></svg>